<mxfile host="app.diagrams.net" modified="2023-05-01T10:55:41.532Z" agent="Mozilla/5.0 (Windows NT 10.0; Win64; x64) AppleWebKit/537.36 (KHTML, like Gecko) Chrome/112.0.0.0 Safari/537.36" etag="wmp1FtW4idNkdadnU3aD" version="21.2.3" type="github">
  <diagram name="Sayfa -1" id="4JBNUapi2TeH2RXsNhai">
    <mxGraphModel dx="1032" dy="433" grid="1" gridSize="10" guides="1" tooltips="1" connect="1" arrows="1" fold="1" page="1" pageScale="1" pageWidth="827" pageHeight="1169" math="0" shadow="0">
      <root>
        <mxCell id="0" />
        <mxCell id="1" parent="0" />
        <mxCell id="mIskSXwvvkSq7mrer5k5-1" value="Player" style="shape=umlActor;verticalLabelPosition=bottom;verticalAlign=top;html=1;" vertex="1" parent="1">
          <mxGeometry x="40" y="90" width="30" height="60" as="geometry" />
        </mxCell>
        <mxCell id="mIskSXwvvkSq7mrer5k5-2" value="SpaceShip" style="html=1;whiteSpace=wrap;" vertex="1" parent="1">
          <mxGeometry x="409" y="110" width="110" height="50" as="geometry" />
        </mxCell>
        <mxCell id="mIskSXwvvkSq7mrer5k5-3" value="Game" style="html=1;whiteSpace=wrap;" vertex="1" parent="1">
          <mxGeometry x="210" y="110" width="110" height="50" as="geometry" />
        </mxCell>
        <mxCell id="mIskSXwvvkSq7mrer5k5-4" value="SpaceShipLaser" style="html=1;whiteSpace=wrap;" vertex="1" parent="1">
          <mxGeometry x="205" y="310" width="110" height="50" as="geometry" />
        </mxCell>
        <mxCell id="mIskSXwvvkSq7mrer5k5-5" value="" style="endArrow=none;html=1;edgeStyle=orthogonalEdgeStyle;rounded=0;" edge="1" parent="1">
          <mxGeometry relative="1" as="geometry">
            <mxPoint x="70" y="130" as="sourcePoint" />
            <mxPoint x="210" y="130" as="targetPoint" />
          </mxGeometry>
        </mxCell>
        <mxCell id="mIskSXwvvkSq7mrer5k5-9" value="&lt;font style=&quot;font-size: 8px;&quot;&gt;&lt;b&gt;1. shoot()&lt;/b&gt;&lt;/font&gt;" style="text;html=1;strokeColor=none;fillColor=none;align=center;verticalAlign=middle;whiteSpace=wrap;rounded=0;" vertex="1" parent="1">
          <mxGeometry x="100" y="90" width="60" height="30" as="geometry" />
        </mxCell>
        <mxCell id="mIskSXwvvkSq7mrer5k5-10" value="&lt;font style=&quot;font-size: 8px;&quot;&gt;&lt;b&gt;[pygame.key.get_pressed(K_space)]&lt;/b&gt;&lt;/font&gt;" style="text;html=1;strokeColor=none;fillColor=none;align=center;verticalAlign=middle;whiteSpace=wrap;rounded=0;" vertex="1" parent="1">
          <mxGeometry x="120" y="70" width="60" height="30" as="geometry" />
        </mxCell>
        <mxCell id="mIskSXwvvkSq7mrer5k5-11" value="" style="endArrow=none;html=1;edgeStyle=orthogonalEdgeStyle;rounded=0;" edge="1" parent="1">
          <mxGeometry relative="1" as="geometry">
            <mxPoint x="320" y="134.67" as="sourcePoint" />
            <mxPoint x="410" y="135" as="targetPoint" />
          </mxGeometry>
        </mxCell>
        <mxCell id="mIskSXwvvkSq7mrer5k5-12" value="&lt;font style=&quot;font-size: 8px;&quot;&gt;&lt;b&gt;1.1. getCoordinates()&lt;/b&gt;&lt;/font&gt;" style="text;html=1;strokeColor=none;fillColor=none;align=center;verticalAlign=middle;whiteSpace=wrap;rounded=0;" vertex="1" parent="1">
          <mxGeometry x="340" y="90" width="60" height="30" as="geometry" />
        </mxCell>
        <mxCell id="mIskSXwvvkSq7mrer5k5-13" value="" style="verticalLabelPosition=bottom;verticalAlign=top;html=1;shape=mxgraph.basic.arc;startAngle=0.7823619428820491;endAngle=0.21697594988992228;" vertex="1" parent="1">
          <mxGeometry x="215" y="70" width="100" height="100" as="geometry" />
        </mxCell>
        <mxCell id="mIskSXwvvkSq7mrer5k5-15" value="" style="html=1;verticalAlign=bottom;endArrow=block;edgeStyle=elbowEdgeStyle;elbow=vertical;curved=0;rounded=0;" edge="1" parent="1">
          <mxGeometry width="80" relative="1" as="geometry">
            <mxPoint x="90" y="119.33" as="sourcePoint" />
            <mxPoint x="170" y="119.33" as="targetPoint" />
          </mxGeometry>
        </mxCell>
        <mxCell id="mIskSXwvvkSq7mrer5k5-16" value="" style="html=1;verticalAlign=bottom;endArrow=block;edgeStyle=elbowEdgeStyle;elbow=vertical;curved=0;rounded=0;" edge="1" parent="1">
          <mxGeometry width="80" relative="1" as="geometry">
            <mxPoint x="330" y="129.32999999999998" as="sourcePoint" />
            <mxPoint x="400" y="129" as="targetPoint" />
          </mxGeometry>
        </mxCell>
        <mxCell id="mIskSXwvvkSq7mrer5k5-17" value="" style="html=1;verticalAlign=bottom;endArrow=block;edgeStyle=elbowEdgeStyle;elbow=vertical;curved=0;rounded=0;" edge="1" parent="1">
          <mxGeometry width="80" relative="1" as="geometry">
            <mxPoint x="300" y="60" as="sourcePoint" />
            <mxPoint x="230" y="60.329999999999984" as="targetPoint" />
          </mxGeometry>
        </mxCell>
        <mxCell id="mIskSXwvvkSq7mrer5k5-22" value="" style="html=1;verticalAlign=bottom;endArrow=block;edgeStyle=elbowEdgeStyle;elbow=vertical;curved=0;rounded=0;" edge="1" parent="1">
          <mxGeometry width="80" relative="1" as="geometry">
            <mxPoint x="240" y="190" as="sourcePoint" />
            <mxPoint x="240" y="260" as="targetPoint" />
            <Array as="points">
              <mxPoint x="320" y="210" />
            </Array>
          </mxGeometry>
        </mxCell>
        <mxCell id="mIskSXwvvkSq7mrer5k5-23" value="" style="endArrow=none;html=1;edgeStyle=orthogonalEdgeStyle;rounded=0;" edge="1" parent="1">
          <mxGeometry relative="1" as="geometry">
            <mxPoint x="264.66999999999996" y="160" as="sourcePoint" />
            <mxPoint x="264.66999999999996" y="300" as="targetPoint" />
            <Array as="points">
              <mxPoint x="264.66999999999996" y="310" />
            </Array>
          </mxGeometry>
        </mxCell>
        <mxCell id="mIskSXwvvkSq7mrer5k5-24" value="" style="html=1;verticalAlign=bottom;endArrow=block;edgeStyle=elbowEdgeStyle;elbow=vertical;curved=0;rounded=0;" edge="1" parent="1">
          <mxGeometry width="80" relative="1" as="geometry">
            <mxPoint x="290" y="260" as="sourcePoint" />
            <mxPoint x="290" y="190" as="targetPoint" />
            <Array as="points">
              <mxPoint x="370" y="210" />
            </Array>
          </mxGeometry>
        </mxCell>
        <mxCell id="mIskSXwvvkSq7mrer5k5-26" value="&lt;font style=&quot;font-size: 8px;&quot;&gt;&lt;b&gt;1.3. addSpaceShipLaser()&lt;/b&gt;&lt;/font&gt;" style="text;html=1;align=center;verticalAlign=middle;resizable=0;points=[];autosize=1;strokeColor=none;fillColor=none;" vertex="1" parent="1">
          <mxGeometry x="285" y="218" width="120" height="30" as="geometry" />
        </mxCell>
        <mxCell id="mIskSXwvvkSq7mrer5k5-27" value="&lt;font style=&quot;font-size: 8px;&quot;&gt;&lt;b&gt;1.2. createSpaceShipLaser()&lt;/b&gt;&lt;/font&gt;" style="text;html=1;align=center;verticalAlign=middle;resizable=0;points=[];autosize=1;strokeColor=none;fillColor=none;" vertex="1" parent="1">
          <mxGeometry x="115" y="218" width="130" height="30" as="geometry" />
        </mxCell>
        <mxCell id="mIskSXwvvkSq7mrer5k5-28" value="&lt;font style=&quot;font-size: 8px;&quot;&gt;&lt;b&gt;1.4. update()&lt;/b&gt;&lt;/font&gt;" style="text;html=1;align=center;verticalAlign=middle;resizable=0;points=[];autosize=1;strokeColor=none;fillColor=none;" vertex="1" parent="1">
          <mxGeometry x="230" y="28" width="70" height="30" as="geometry" />
        </mxCell>
        <mxCell id="mIskSXwvvkSq7mrer5k5-30" value="&lt;font style=&quot;font-size: 14px;&quot;&gt;&lt;b&gt;SHOOT&lt;/b&gt;&lt;/font&gt;" style="html=1;whiteSpace=wrap;" vertex="1" parent="1">
          <mxGeometry x="5" y="8" width="110" height="50" as="geometry" />
        </mxCell>
      </root>
    </mxGraphModel>
  </diagram>
</mxfile>
